<svg height="512pt" viewBox="0 -52 512 512" width="512pt" xmlns="http://www.w3.org/2000/svg"><path d="m36.597656 7.5h258.488282v84.5h-258.488282zm0 0" fill="#76ffd9"/><path d="m324.179688 381.191406h-316.679688v-231.863281l28.402344-75.210937h259.558594l28.390624 75.210937.007813 4.445313.046875 35.953124zm0 0" fill="#fff"/><path d="m323.90625 189.726562c-1.976562 2.75-4.207031 5.367188-6.671875 7.800782-11.304687 11.175781-26.3125 17.335937-42.238281 17.335937-10.417969 0-20.226563-2.671875-28.789063-7.34375-3.113281 1.695313-6.410156 3.148438-9.878906 4.296875-6.0625 2.011719-12.4375 3.046875-18.941406 3.046875-33.167969 0-60.148438-26.992187-60.148438-60.15625 0-2 .089844-3.851562.273438-5.671875 2.898437-31.0625 28.628906-54.484375 59.875-54.484375 6.5 0 12.878906 1.035157 18.964843 3.058594 3.421876 1.125 6.683594 2.558594 9.777344 4.230469 5.855469-3.183594 12.300782-5.414063 19.144532-6.503906.648437-2.285157 1.410156-4.546876 2.332031-6.765626 2.183593-5.285156 5.058593-10.128906 8.503906-14.449218h19.351563l28.390624 75.207031.007813 4.449219zm0 0" fill="#e1eaf8"/><path d="m324.179688 381.191406h-90.433594c-.546875-2.796875-.832032-5.695312-.832032-8.652344v-6.46875c-39.816406-15.941406-74.332031-43.957031-98.449218-81.304687-12.199219-18.898437-21.25-39.542969-26.886719-61.375-4.390625-17.085937-6.617187-34.765625-6.617187-52.5625v-4.398437c0-6.992188 5.671874-12.652344 12.652343-12.652344h210.25zm0 0" fill="#e1eaf8"/><path d="m366.269531 111.605469c0 19.65625-13.15625 36.246093-31.152343 41.417969-3.796876 1.105468-7.800782 1.683593-11.949219 1.683593-9.652344 0-18.554688-3.171875-25.742188-8.527343-10.527343-7.855469-17.351562-20.417969-17.351562-34.574219 0-5.832031 1.160156-11.402344 3.277343-16.484375 6.46875-15.625 21.863282-26.605469 39.816407-26.605469 17.859375 0 33.175781 10.855469 39.714843 26.320313 2.183594 5.148437 3.386719 10.824218 3.386719 16.769531zm0 0" fill="#ffc843"/><path d="m335.117188 153.023438c-3.796876 1.105468-7.800782 1.683593-11.949219 1.683593-9.652344 0-18.554688-3.171875-25.742188-8.527343-10.527343-7.855469-17.351562-20.417969-17.351562-34.574219 0-5.832031 1.160156-11.402344 3.277343-16.484375 12.757813 1.773437 24.570313 7.558594 33.890626 16.757812 11.15625 11.003906 17.464843 25.558594 17.875 41.144532zm0 0" fill="#ffa816"/><path d="m366.269531 111.605469c0 23.808593-19.292969 43.101562-43.101562 43.101562-9.652344 0-18.554688-3.171875-25.742188-8.527343 4.148438-29.140626 29.265625-51.628907 59.542969-51.628907 2 0 3.96875.101563 5.914062.285157 2.183594 5.148437 3.386719 10.824218 3.386719 16.769531zm0 0" fill="#ffa816"/><path d="m260.488281 154.707031c0 19.054688-12.371093 35.234375-29.527343 40.917969-4.265626 1.421875-8.835938 2.183594-13.574219 2.183594-23.796875 0-43.09375-19.304688-43.09375-43.101563 0-1.351562.058593-2.695312.195312-4.015625 2.011719-21.917968 20.453125-39.085937 42.898438-39.085937 4.738281 0 9.308593.761719 13.574219 2.179687 15.9375 5.277344 27.742187 19.613282 29.332031 36.90625.136719 1.320313.195312 2.664063.195312 4.015625zm0 0" fill="#ffc843"/><path d="m260.488281 154.707031c0 19.054688-12.371093 35.234375-29.527343 40.917969-4.265626 1.421875-8.835938 2.183594-13.574219 2.183594-23.796875 0-43.09375-19.304688-43.09375-43.101563 0-1.351562.058593-2.695312.195312-4.015625h85.804688c.136719 1.320313.195312 2.664063.195312 4.015625zm0 0" fill="#ffa816"/><path d="m260.488281 154.707031c0 19.054688-12.371093 35.234375-29.527343 40.917969-10.007813-10.730469-16.121094-25.125-16.121094-40.917969s6.113281-30.1875 16.121094-40.921875c17.15625 5.6875 29.527343 21.855469 29.527343 40.921875zm0 0" fill="#ffa816"/><path d="m318.097656 154.707031c0 12.007813-4.910156 22.863281-12.835937 30.675781-7.777344 7.683594-18.476563 12.425782-30.265625 12.425782-23.808594 0-43.101563-19.304688-43.101563-43.101563 0-1.351562.054688-2.695312.191407-4.015625 2.011718-21.917968 20.453124-39.085937 42.910156-39.085937 11.789062 0 22.488281 4.738281 30.265625 12.414062 7.027343 6.9375 11.6875 16.269531 12.652343 26.671875.125 1.320313.183594 2.664063.183594 4.015625zm0 0" fill="#ffc843"/><path d="m318.097656 154.707031c0 12.007813-4.910156 22.863281-12.835937 30.675781-7.777344 7.683594-18.476563 12.425782-30.265625 12.425782-23.808594 0-43.101563-19.304688-43.101563-43.101563 0-1.351562.054688-2.695312.191407-4.015625h85.828124c.125 1.320313.183594 2.664063.183594 4.015625zm0 0" fill="#ffa816"/><path d="m318.097656 154.707031c0 12.007813-4.910156 22.863281-12.835937 30.675781-5.367188-8.984374-8.4375-19.476562-8.4375-30.675781 0-11.210937 3.082031-21.703125 8.4375-30.6875 7.921875 7.824219 12.835937 18.679688 12.835937 30.6875zm0 0" fill="#ffa816"/><path d="m400.070312 154.707031c0 23.796875-19.292968 43.101563-43.101562 43.101563-23.796875 0-43.089844-19.304688-43.089844-43.101563 0-1.351562.058594-2.695312.191406-4.015625 2.015626-21.917968 20.457032-39.085937 42.898438-39.085937 22.457031 0 40.898438 17.167969 42.910156 39.085937.136719 1.320313.191406 2.664063.191406 4.015625zm0 0" fill="#ffc843"/><path d="m400.070312 154.707031c0 23.796875-19.292968 43.101563-43.101562 43.101563-23.796875 0-43.089844-19.304688-43.089844-43.101563 0-1.351562.058594-2.695312.191406-4.015625h85.808594c.136719 1.320313.191406 2.664063.191406 4.015625zm0 0" fill="#ffa816"/><path d="m480.089844 125.21875-100.332032 100.332031-22.789062-22.785156 100.332031-100.332031c3.144531-3.144532 7.269531-4.714844 11.394531-4.714844 4.109376 0 8.253907 1.570312 11.394532 4.714844 6.285156 6.300781 6.285156 16.484375 0 22.785156zm0 0" fill="#ffc843"/><path d="m463.292969 142.015625-83.535157 83.535156-22.785156-22.785156 60.746094-60.75zm0 0" fill="#ffb400"/><path d="m356.765625 400.960938h-91.023437c-8.710938 0-15.769532-7.0625-15.769532-15.773438v-50.359375h122.566406v50.359375c0 8.710938-7.0625 15.773438-15.773437 15.773438zm0 0" fill="#fff"/><path d="m504.5 170.828125c0 16.675781-2.105469 32.851563-6.078125 48.300781-5.230469 20.269532-13.652344 39.257813-24.71875 56.382813-34.390625 53.289062-94.308594 88.558593-162.445313 88.558593-68.15625 0-128.058593-35.269531-162.460937-88.558593-11.066406-17.125-19.476563-36.113281-24.703125-56.382813-3.972656-15.449218-6.078125-31.625-6.078125-48.300781zm0 0" fill="#fff"/><path d="m498.421875 219.128906c-5.230469 20.265625-13.652344 39.257813-24.71875 56.382813h-324.90625c-11.066406-17.125-19.472656-36.117188-24.703125-56.382813zm0 0" fill="#ffc843"/><path d="m504.5 163.328125h-51.910156l32.804687-32.804687c9.207031-9.207032 9.207031-24.1875-.007812-33.402344-4.46875-4.457032-10.394531-6.910156-16.6875-6.910156-6.3125 0-12.242188 2.457031-16.703125 6.917968l-45.820313 45.820313c-4.023437-16.832031-16.476562-30.417969-32.632812-36.035157-2.378907-25.707031-24.058594-45.902343-50.375-45.902343-7.152344 0-14.160157 1.523437-20.589844 4.390625v-22.949219c3.664063-.496094 6.488281-3.625 6.488281-7.425781 0-3.796875-2.828125-6.925782-6.488281-7.421875v-20.105469c0-4.144531-3.355469-7.5-7.5-7.5h-30.25c-4.140625 0-7.5 3.355469-7.5 7.5s3.359375 7.5 7.5 7.5h22.75v12.53125h-243.476563v-12.53125h191.738282c4.144531 0 7.5-3.355469 7.5-7.5s-3.355469-7.5-7.5-7.5h-199.238282c-4.144531 0-7.5 3.355469-7.5 7.5v20.105469c-3.664062.496093-6.488281 3.625-6.488281 7.425781 0 3.796875 2.824219 6.929688 6.488281 7.421875v28.558594c-.074218.152343-.15625.296875-.21875.460937l-28.398437 75.199219c-.316406.835937-.484375 1.753906-.484375 2.648437v98.75c0 4.144532 3.355469 7.5 7.5 7.5s7.5-3.355468 7.5-7.5v-91.246093h151.839844c.089844 2.191406.328125 4.363281.695312 6.503906h-49.523437c-4.144531 0-7.5 3.359375-7.5 7.5 0 17.460937 2.085937 35.296875 6.796875 52.136719 4.761718 17.015625 11.5 33.417968 20.40625 48.6875 7.671875 13.160156 16.863281 25.445312 27.296875 36.550781 10.019531 10.664063 21.199219 20.238281 33.277343 28.496094 12.175782 8.320312 25.265626 15.296875 38.96875 20.75 1.726563.6875 3.464844 1.351562 5.210938 1.992187v14.25h-227.46875v-96.628906c0-4.144531-3.355469-7.5-7.5-7.5s-7.5 3.355469-7.5 7.5v104.128906c0 4.144532 3.355469 7.5 7.5 7.5h235.234375c1.691406 11.175782 11.363281 19.773438 23.003906 19.773438h91.03125c12.832031 0 23.269531-10.441406 23.269531-23.273438v-25.71875c14.753907-5.382812 28.894532-12.515625 42.152344-21.324218 3.449219-2.292969 4.386719-6.945313 2.09375-10.394532-2.289062-3.453125-6.945312-4.390625-10.394531-2.097656-30.453125 20.230469-65.945313 30.925781-102.640625 30.925781-60.304688 0-113.980469-28.898437-147.933594-73.570312l-10.292968-15c-7.917969-12.84375-14.320313-26.722657-18.945313-41.378907l-4.039063-15c-2.425781-10.78125-3.925781-21.90625-4.378906-33.300781h371.1875c-.457031 11.273438-1.957031 22.414063-4.417968 33.300781l-4.054688 15c-4.578125 14.503907-10.921875 28.40625-18.878906 41.378907l-10.242188 15c-6.898437 9.117187-14.65625 17.640625-23.234375 25.425781-3.066406 2.785156-3.296875 7.527344-.515625 10.59375 2.785156 3.070312 7.527344 3.296875 10.597656.515625 12.878907-11.683594 24.058594-24.90625 33.382813-39.253906.367187-.445313.675781-.933594.933594-1.453125 11.164062-17.507813 21.910156-45.472656 25.472656-59.03125 4.160156-15.851563 6.109375-32.328125 6.109375-48.972656 0-4.148438-3.355469-7.507813-7.5-7.507813zm-247.03125 200.925781c17.125 4.765625 35.160156 7.324219 53.78125 7.324219 18.34375 0 36.410156-2.476563 53.789062-7.300781v20.914062c0 4.5625-3.710937 8.269532-8.269531 8.269532h-91.03125c-4.558593 0-8.269531-3.707032-8.269531-8.269532zm-213.367188-321.722656h243.476563v24.089844h-243.476563zm124.355469 99.292969h-150.109375l22.738282-60.203125h241.335937c-1.613281 2.191406-3.0625 4.507812-4.316406 6.960937-2.492188 4.863281-4.152344 10.148438-4.960938 15.574219-9.980469.359375-19.230469 3.621094-26.933593 8.972656-8.417969-5.847656-18.441407-9.019531-28.820313-9.019531-23.449219 0-43.21875 16.035156-48.933594 37.714844zm56.6875 21.503906h-42.300781c-.699219-2.800781-1.054688-5.683594-1.054688-8.617187 0-19.628907 15.972657-35.601563 35.601563-35.601563 6.238281 0 12.289063 1.628906 17.609375 4.664063-6.636719 8.5625-10.597656 19.292968-10.597656 30.9375-.003906 2.910156.257812 5.789062.742187 8.617187zm81.972657 0h-66.667969c-.695313-2.800781-1.050781-5.683594-1.050781-8.617187 0-19.628907 15.96875-35.601563 35.589843-35.601563 1.4375 0 2.855469.085937 4.25.25.03125.003906.0625.007813.097657.011719 12.914062 1.566406 23.960937 10.046875 28.761718 22.246094-1.121094 4.179687-1.726562 8.566406-1.726562 13.09375 0 2.910156.257812 5.789062.746094 8.617187zm-19.070313-57.515625c.585937-3.613281 1.71875-7.09375 3.410156-10.394531 2.117188-4.136719 4.976563-7.769531 8.519531-10.808594 6.433594-5.546875 14.671876-8.601563 23.191407-8.601563 17.066406 0 31.359375 12.074219 34.804687 28.125-.335937-.003906-.667968-.023437-1.003906-.023437-16.824219 0-31.75 8.261719-40.953125 20.9375-6.800781-9.429687-16.675781-16.238281-27.96875-19.234375zm103.472656 57.515625h-69.097656c-.699219-2.800781-1.050781-5.683594-1.050781-8.617187 0-19.628907 15.96875-35.601563 35.597656-35.601563 19.632812 0 35.601562 15.972656 35.601562 35.601563 0 2.933593-.351562 5.816406-1.050781 8.617187zm15.488281 0 55.597657-55.59375c1.625-1.628906 3.789062-2.523437 6.09375-2.523437 2.292969 0 4.457031.898437 6.085937 2.523437 3.359375 3.359375 3.359375 8.824219 0 12.183594l-43.414062 43.410156zm0 0" fill="#434c54"/><g fill="#5de0bf"><path d="m39.613281 335.804688h11.988281c4.140626 0 7.5-3.355469 7.5-7.5 0-4.144532-3.359374-7.5-7.5-7.5h-11.988281c-4.144531 0-7.5 3.355468-7.5 7.5 0 4.144531 3.359375 7.5 7.5 7.5zm0 0"/><path d="m39.613281 359.230469h57.0625c4.140625 0 7.5-3.359375 7.5-7.5 0-4.144531-3.359375-7.5-7.5-7.5h-57.0625c-4.144531 0-7.5 3.355469-7.5 7.5 0 4.140625 3.359375 7.5 7.5 7.5zm0 0"/></g></svg>